<mxfile host="app.diagrams.net" agent="Mozilla/5.0 (Windows NT 10.0; Win64; x64) AppleWebKit/537.36 (KHTML, like Gecko) Chrome/129.0.0.0 Safari/537.36" version="24.7.17">
  <diagram id="C5RBs43oDa-KdzZeNtuy" name="Page-1">
    <mxGraphModel dx="1323" dy="687" grid="1" gridSize="10" guides="1" tooltips="1" connect="1" arrows="1" fold="1" page="1" pageScale="1" pageWidth="827" pageHeight="1169" math="0" shadow="0">
      <root>
        <mxCell id="WIyWlLk6GJQsqaUBKTNV-0" />
        <mxCell id="WIyWlLk6GJQsqaUBKTNV-1" parent="WIyWlLk6GJQsqaUBKTNV-0" />
        <mxCell id="vypxZ5MaS1NF67B90ROW-3" style="edgeStyle=orthogonalEdgeStyle;rounded=0;orthogonalLoop=1;jettySize=auto;html=1;entryX=0.75;entryY=0;entryDx=0;entryDy=0;" parent="WIyWlLk6GJQsqaUBKTNV-1" source="vypxZ5MaS1NF67B90ROW-0" target="vypxZ5MaS1NF67B90ROW-2" edge="1">
          <mxGeometry relative="1" as="geometry">
            <mxPoint x="340.9999999999999" y="160.00000000000006" as="targetPoint" />
          </mxGeometry>
        </mxCell>
        <mxCell id="vypxZ5MaS1NF67B90ROW-0" value="Start multiplication.s" style="ellipse;whiteSpace=wrap;html=1;fontSize=11;" parent="WIyWlLk6GJQsqaUBKTNV-1" vertex="1">
          <mxGeometry x="278" y="40" width="120" height="80" as="geometry" />
        </mxCell>
        <mxCell id="vypxZ5MaS1NF67B90ROW-1" value="Stop multiplication.s" style="ellipse;whiteSpace=wrap;html=1;fontSize=11;" parent="WIyWlLk6GJQsqaUBKTNV-1" vertex="1">
          <mxGeometry x="600" y="290" width="120" height="80" as="geometry" />
        </mxCell>
        <mxCell id="7avL56p1aBeqWitfa0Iu-6" style="edgeStyle=orthogonalEdgeStyle;rounded=0;orthogonalLoop=1;jettySize=auto;html=1;exitX=1;exitY=0.5;exitDx=0;exitDy=0;entryX=0;entryY=0.5;entryDx=0;entryDy=0;" parent="WIyWlLk6GJQsqaUBKTNV-1" source="vypxZ5MaS1NF67B90ROW-2" target="vypxZ5MaS1NF67B90ROW-4" edge="1">
          <mxGeometry relative="1" as="geometry" />
        </mxCell>
        <mxCell id="vypxZ5MaS1NF67B90ROW-2" value="Non-negative integer inputs stored in r1(multiplicand) and r2(multiplier)." style="shape=parallelogram;perimeter=parallelogramPerimeter;whiteSpace=wrap;html=1;fixedSize=1;fontSize=11;" parent="WIyWlLk6GJQsqaUBKTNV-1" vertex="1">
          <mxGeometry x="210" y="160" width="170" height="70" as="geometry" />
        </mxCell>
        <mxCell id="vypxZ5MaS1NF67B90ROW-6" style="edgeStyle=orthogonalEdgeStyle;rounded=0;orthogonalLoop=1;jettySize=auto;html=1;entryX=0.5;entryY=0;entryDx=0;entryDy=0;" parent="WIyWlLk6GJQsqaUBKTNV-1" source="vypxZ5MaS1NF67B90ROW-4" target="vypxZ5MaS1NF67B90ROW-5" edge="1">
          <mxGeometry relative="1" as="geometry" />
        </mxCell>
        <mxCell id="vypxZ5MaS1NF67B90ROW-4" value="Keep product value in r3 (currently the product is 0)&lt;div&gt;Keep loop count in r4 (currently the loop count is 0)&lt;br&gt;&lt;/div&gt;" style="rounded=1;whiteSpace=wrap;html=1;" parent="WIyWlLk6GJQsqaUBKTNV-1" vertex="1">
          <mxGeometry x="414" y="120" width="290" height="60" as="geometry" />
        </mxCell>
        <mxCell id="vypxZ5MaS1NF67B90ROW-7" value="NO" style="edgeStyle=orthogonalEdgeStyle;rounded=0;orthogonalLoop=1;jettySize=auto;html=1;entryX=0;entryY=0.5;entryDx=0;entryDy=0;" parent="WIyWlLk6GJQsqaUBKTNV-1" source="vypxZ5MaS1NF67B90ROW-5" target="vypxZ5MaS1NF67B90ROW-1" edge="1">
          <mxGeometry relative="1" as="geometry" />
        </mxCell>
        <mxCell id="7avL56p1aBeqWitfa0Iu-1" value="YES" style="edgeStyle=orthogonalEdgeStyle;rounded=0;orthogonalLoop=1;jettySize=auto;html=1;entryX=0.994;entryY=0.434;entryDx=0;entryDy=0;entryPerimeter=0;" parent="WIyWlLk6GJQsqaUBKTNV-1" source="vypxZ5MaS1NF67B90ROW-5" target="7avL56p1aBeqWitfa0Iu-0" edge="1">
          <mxGeometry relative="1" as="geometry" />
        </mxCell>
        <mxCell id="vypxZ5MaS1NF67B90ROW-5" value="r4(loop count) &amp;lt; r2(multiplier)" style="rhombus;whiteSpace=wrap;html=1;" parent="WIyWlLk6GJQsqaUBKTNV-1" vertex="1">
          <mxGeometry x="360" y="240" width="200" height="80" as="geometry" />
        </mxCell>
        <mxCell id="7avL56p1aBeqWitfa0Iu-3" style="edgeStyle=orthogonalEdgeStyle;rounded=0;orthogonalLoop=1;jettySize=auto;html=1;entryX=0;entryY=0.5;entryDx=0;entryDy=0;" parent="WIyWlLk6GJQsqaUBKTNV-1" source="7avL56p1aBeqWitfa0Iu-0" target="7avL56p1aBeqWitfa0Iu-2" edge="1">
          <mxGeometry relative="1" as="geometry" />
        </mxCell>
        <mxCell id="7avL56p1aBeqWitfa0Iu-0" value="add the multiplicand(r1)&amp;nbsp;&lt;div&gt;to the product(r3).&lt;/div&gt;" style="rounded=1;whiteSpace=wrap;html=1;" parent="WIyWlLk6GJQsqaUBKTNV-1" vertex="1">
          <mxGeometry x="160" y="259" width="140" height="47" as="geometry" />
        </mxCell>
        <mxCell id="7avL56p1aBeqWitfa0Iu-4" style="edgeStyle=orthogonalEdgeStyle;rounded=0;orthogonalLoop=1;jettySize=auto;html=1;exitX=1;exitY=0.5;exitDx=0;exitDy=0;entryX=0.5;entryY=1;entryDx=0;entryDy=0;" parent="WIyWlLk6GJQsqaUBKTNV-1" source="7avL56p1aBeqWitfa0Iu-2" target="vypxZ5MaS1NF67B90ROW-5" edge="1">
          <mxGeometry relative="1" as="geometry" />
        </mxCell>
        <mxCell id="7avL56p1aBeqWitfa0Iu-2" value="Increase the loop-count(r4) by 1." style="rounded=1;whiteSpace=wrap;html=1;" parent="WIyWlLk6GJQsqaUBKTNV-1" vertex="1">
          <mxGeometry x="250" y="340" width="180" height="60" as="geometry" />
        </mxCell>
        <mxCell id="7avL56p1aBeqWitfa0Iu-8" value="r3 should contain the&lt;div&gt;result of the input stored in r1 multiplied by the input stored in r2.&lt;/div&gt;" style="shape=callout;whiteSpace=wrap;html=1;perimeter=calloutPerimeter;size=30;position=0.42;" parent="WIyWlLk6GJQsqaUBKTNV-1" vertex="1">
          <mxGeometry x="590" y="190" width="140" height="100" as="geometry" />
        </mxCell>
        <mxCell id="U1Y0LzdGQBUZkV_ZDe42-0" value="&lt;h1 style=&quot;margin-top: 0px;&quot;&gt;multiplication.s flow chart&amp;nbsp;&lt;/h1&gt;&lt;div&gt;&lt;br&gt;&lt;/div&gt;&lt;p&gt;&lt;br&gt;&lt;/p&gt;&lt;div&gt;&lt;br&gt;&lt;/div&gt;" style="text;html=1;whiteSpace=wrap;overflow=hidden;rounded=0;" vertex="1" parent="WIyWlLk6GJQsqaUBKTNV-1">
          <mxGeometry x="80" y="30" width="180" height="120" as="geometry" />
        </mxCell>
      </root>
    </mxGraphModel>
  </diagram>
</mxfile>
